<svg width="80" height="80" viewBox="0 0 80 80" fill="none" xmlns="http://www.w3.org/2000/svg">
  <rect width="80" height="80" rx="16" fill="#2563EB"/>
  <path d="M20 25C20 22.7909 21.7909 21 24 21H56C58.2091 21 60 22.7909 60 25V55C60 57.2091 58.2091 59 56 59H24C21.7909 59 20 57.2091 20 55V25Z" fill="white"/>
  <rect x="24" y="25" width="32" height="4" rx="2" fill="#DBEAFE"/>
  <circle cx="52" cy="27" r="2" fill="#60A5FA"/>
  <rect x="24" y="33" width="32" height="22" rx="2" fill="#DBEAFE"/>
  <path d="M35 44L39 48L35 52" stroke="#2563EB" stroke-width="2" stroke-linecap="round" stroke-linejoin="round"/>
  <path d="M45 44L41 48L45 52" stroke="#2563EB" stroke-width="2" stroke-linecap="round" stroke-linejoin="round"/>
</svg> 